<svg width="24" height="24" viewBox="0 0 24 24" fill="none" xmlns="http://www.w3.org/2000/svg">
<g clip-path="url(#clip0_161_3917)">
<path d="M5.12886 13.0485C5.6573 14.2919 6.54258 15.3507 7.67276 16.091C8.80295 16.8313 10.1273 17.2198 11.4783 17.2074C12.8292 17.195 14.1462 16.7823 15.2626 16.0215C16.3791 15.2606 17.2448 14.1858 17.7504 12.9329C18.2559 11.68 18.3786 10.3053 18.1029 8.9827C17.8272 7.66009 17.1655 6.44893 16.2014 5.50239C15.2374 4.55585 14.0143 3.91644 12.6869 3.66502C11.3594 3.4136 9.98725 3.56145 8.74383 4.08989C7.07647 4.7985 5.75889 6.14045 5.08095 7.82052C4.40301 9.50059 4.42025 11.3812 5.12886 13.0485Z" stroke="black" stroke-width="1.8" stroke-linecap="round" stroke-linejoin="round"/>
<path d="M16.2461 15.207L21.5461 20.507" stroke="black" stroke-width="1.8" stroke-linecap="round" stroke-linejoin="round"/>
</g>
<defs>
<clipPath id="clip0_161_3917">
<rect width="24" height="24" fill="white"/>
</clipPath>
</defs>
</svg>
